<svg width="32" height="22" viewBox="0 0 32 22" fill="none" xmlns="http://www.w3.org/2000/svg">
<path d="M27.6755 9.78107C28.6126 9.12258 29.2331 8.02721 29.2331 6.79254C29.2331 4.77276 27.5995 3.1392 25.5797 3.1392C23.56 3.1392 21.9264 4.77276 21.9264 6.79254C21.9264 8.02721 22.5406 9.12258 23.484 9.78107C22.6799 10.0597 21.9454 10.4902 21.3249 11.0474C20.4701 10.3193 19.4634 9.76207 18.3617 9.43283C19.6977 8.62238 20.5968 7.14711 20.5968 5.46923C20.5968 2.91126 18.5263 0.84082 15.9683 0.84082C13.4104 0.84082 11.3399 2.91759 11.3399 5.46923C11.3399 7.14711 12.2327 8.62238 13.575 9.43283C12.486 9.76207 11.4919 10.3129 10.6435 11.0284C10.023 10.4839 9.30115 10.0597 8.5097 9.7874C9.44678 9.12891 10.0673 8.03354 10.0673 6.79887C10.0673 4.77909 8.43372 3.14553 6.41393 3.14553C4.39414 3.14553 2.76059 4.77909 2.76059 6.79887C2.76059 8.03354 3.37475 9.12891 4.31816 9.7874C1.80451 10.6548 0 13.0419 0 15.8468V16.2646C0 16.2773 0.0126632 16.29 0.0253265 16.29H7.7689C7.72458 16.6382 7.69925 16.9991 7.69925 17.36V17.7906C7.69925 19.6521 9.20617 21.159 11.0677 21.159H20.8817C22.7432 21.159 24.2501 19.6521 24.2501 17.7906V17.36C24.2501 16.9991 24.2248 16.6382 24.1805 16.29H31.9747C31.9873 16.29 32 16.2773 32 16.2646V15.8468C31.9873 13.0355 30.1892 10.6485 27.6755 9.78107ZM22.9395 6.78621C22.9395 5.32994 24.1235 4.14593 25.5797 4.14593C27.036 4.14593 28.22 5.32994 28.22 6.78621C28.22 8.22349 27.0613 9.39484 25.6304 9.4265C25.6114 9.4265 25.5987 9.4265 25.5797 9.4265C25.5607 9.4265 25.5481 9.4265 25.5291 9.4265C24.0918 9.40117 22.9395 8.22982 22.9395 6.78621ZM12.3403 5.46923C12.3403 3.47477 13.9612 1.85388 15.9557 1.85388C17.9501 1.85388 19.571 3.47477 19.571 5.46923C19.571 7.39405 18.0578 8.97062 16.1646 9.07826C16.095 9.07826 16.0253 9.07826 15.9557 9.07826C15.886 9.07826 15.8164 9.07826 15.7467 9.07826C13.8536 8.97062 12.3403 7.39405 12.3403 5.46923ZM3.75465 6.78621C3.75465 5.32994 4.93866 4.14593 6.39494 4.14593C7.85121 4.14593 9.03522 5.32994 9.03522 6.78621C9.03522 8.22349 7.87653 9.39484 6.44559 9.4265C6.42659 9.4265 6.41393 9.4265 6.39494 9.4265C6.37594 9.4265 6.36328 9.4265 6.34428 9.4265C4.91334 9.40117 3.75465 8.22982 3.75465 6.78621ZM7.94618 15.2706H1.02572C1.31065 12.5733 3.59003 10.4585 6.35695 10.4396C6.36961 10.4396 6.38227 10.4396 6.39494 10.4396C6.4076 10.4396 6.42026 10.4396 6.43292 10.4396C7.7499 10.4459 8.95291 10.9334 9.88366 11.7249C8.9719 12.7126 8.29442 13.9283 7.94618 15.2706ZM23.2244 17.7906C23.2244 19.0885 22.167 20.1459 20.869 20.1459H11.055C9.75702 20.1459 8.69964 19.0885 8.69964 17.7906V17.36C8.69964 13.4281 11.8401 10.2116 15.7467 10.0976C15.8164 10.104 15.8924 10.104 15.962 10.104C16.0317 10.104 16.1076 10.104 16.1773 10.0976C20.0839 10.2116 23.2244 13.4281 23.2244 17.36V17.7906ZM23.9778 15.2706C23.6296 13.9346 22.9648 12.7379 22.0594 11.7502C22.9964 10.9398 24.2121 10.4522 25.5417 10.4396C25.5544 10.4396 25.5671 10.4396 25.5797 10.4396C25.5924 10.4396 25.6051 10.4396 25.6177 10.4396C28.3846 10.4585 30.664 12.5733 30.949 15.2706H23.9778Z" fill="#FFC726"/>
</svg>
